<?xml version="1.0" encoding="UTF-8"?>
<svg id="koren_jm_logo_Burgundy_xA0_Image" xmlns="http://www.w3.org/2000/svg" version="1.1" viewBox="0 0 1001.76 334.56">
  <!-- Generator: Adobe Illustrator 30.0.0, SVG Export Plug-In . SVG Version: 2.1.1 Build 123)  -->
  <defs>
    <style>
      .st0 {
        fill: #fff;
      }
    </style>
  </defs>
  <g>
    <g>
      <path class="st0" d="M357.98,37.54c34.92-2.33,60.09,22.76,58.17,57.64-3.18,57.79-84.5,70.3-107.42,18.13-16.06-36.57,11.35-73.23,49.25-75.76ZM355.1,49.05c-28.69,1.99-39.39,34.82-29.25,58.66,14.09,33.11,60.65,37.91,71.69.04,7.86-26.97-12.52-60.77-42.44-58.7Z"/>
      <path class="st0" d="M246.29,38.36c-.76,2.94-1.88,5.73-2.55,8.72-2.25,10.03-2.38,26.63-1.77,37.07.04.72-.36,1.38.71,1.19l28.74-35.04c2.65-3.7,5.66-7.32,6.52-11.94h26.87c-16.89,13.01-29.21,30.38-43.21,46.23-.84.97-.42,2.22.3,3.12,13.71,15.54,25.49,33.63,39.09,49.14,2.56,2.92,5.74,5.33,8.14,8.4l-25.92.25c-2.05-6.18-4.67-11.21-8.43-16.5-8.64-12.19-21.47-28.44-31.4-39.57-.39-.44-.83-1.06-1.42-1.21l-.02,30.94c.85,2.85.24,5.78.5,8.6.58,6.07,2.21,12.02,3.35,17.98h-23.99c.87-3.66,2.06-7.21,2.73-10.94.79-4.43,1.4-9.73,1.61-14.21.86-18.7,1.01-42.76,0-61.39-.38-7.07-2.27-13.88-3.38-20.83h23.51Z"/>
    </g>
    <path class="st0" d="M505.85,145.72h-14.63c-16.68-14.19-29.81-31.81-42.7-49.37-.06,16.46-1.77,33.34,2.64,49.37h-21.59c.51-6.32,2.09-12.56,2.42-18.91,1.23-23.92-.98-48.87,0-72.9l-2.42-15.55c11.56.56,23.94-1.34,35.23,1.47,31.49,7.85,35.31,42.99,6.51,57.25l-.43.87c3.46,5.9,7.09,11.69,11.07,17.25,7.23,10.09,15.73,19.22,23.18,29.09.36.48.93.6.72,1.44ZM448.28,93.96c10.82-1.76,24.99-8.48,25.93-20.83,1.24-16.3-11.37-23.89-25.93-25.66v46.49Z"/>
    <g>
      <path class="st0" d="M607.56,38.36l2.97,6.86c18.08,24.63,37.54,48.28,56.51,72.23-.67-19.56.9-39.72.02-59.21-.1-2.26-.32-5.35-.56-7.59-.45-4.15-1.51-8.21-2.34-12.28h20.63c-.62,2.8-1.44,5.62-1.84,8.46-.49,3.4-.9,7.51-1.05,10.93-.91,20.17-.82,44.55,0,64.75.16,3.88.53,8.52,1.05,12.37s1.76,7.18,2.33,10.85h-19.67l-2.8-6.55c-16.76-21.04-32.68-45.55-50.47-65.57-.39-.44-.83-1.06-1.42-1.21v45.77c.75,9.31,1.36,18.65,4.31,27.57h-22.55c.63-4.12,1.78-8.15,2.34-12.28,3.46-25.51-.45-54.08.99-79.96-.35-2.19-7.98-9.67-10.04-11.54l-4.32-3.59h25.91Z"/>
      <path class="st0" d="M573.02,38.36l-7.98,16.34c-5.14-1.28-9.82-4.02-15.03-5.09-4.63-.95-9.7-1.19-14.41-1.18v37.39h33.1l-8.7,15.3c-7.94-2.38-16.04-4.46-24.41-4.76v38.82c14.99.82,29.69-2.66,43.65-7.67l-7.91,18.21h-55.89c1.6-7.19,3.47-14.37,3.86-21.79,1-18.94.91-43.38,0-62.35-.37-7.85-1.85-15.67-3.86-23.22h57.57Z"/>
    </g>
  </g>
  <g>
    <path class="st0" d="M181.52,66.64c-.42,1.42-1.23,2.29-1.69,3.83-.71,2.38-.7,4.99-1.21,7.42v206.12c-1.51,9.01-8.03,14.02-16.99,14.65-31.21,2.19-64.97-1.68-96.45-.03-7.12-.83-13.14-5.92-14.99-12.83-1.41-70.15-.23-140.54-.59-210.78-.41-2.93-1.15-5.96-2.9-8.37h134.82ZM150.58,109.3h-52.29l-.72-.72v-30.44l-35.5,44.58h23.03v150.98h12.47V122.72h44.86c1.3,0,2.05,3.92,2.15,5.04.2,2.21.33,14.69-.24,16.04-.57.7-1.26,1.3-1.93,1.91-7.9,7.29-18.89,13.34-26.83,20.64-.5.46-1.74,1.33-1.63,2.05l6.87,8.94c11.52-9.46,24.48-17.29,35.22-27.61.62-1.34.91-2.77,1.04-4.23.57-6.61.68-20.82-.07-27.29-.39-3.38-2.78-8.18-6.43-8.92Z"/>
    <path class="st0" d="M95.16,24.94v16.78h9.6v-4.31h6.72v20.13h5.28v-15.82h6.24v15.82h4.8v-15.82h6.72v-4.31h6.72v4.32s5.48,0,5.48,0l.28-4.32h7.68v4.31h8.64v-4.31h7.2v4.31h8.64v15.58c-1.66,1.47-4.59.42-6.72.72v-10.07h-9.12v15.34h-6.72v-15.34h-9.12v15.34h-6.24v-15.34h-6.72v15.34h-30.23v-11.98l-6.96,11.98h-6.96l7.68-15.34h-9.12v10.07h-6.72v-10.07h-10.08v15.34h-22.55v-25.88h6.72v4.31h15.83v-4.31h7.2v4.31h9.6v-16.78h6.24ZM66.38,47.94h-10.08v9.59h10.08v-9.59Z"/>
  </g>
  <g>
    <path class="st0" d="M703.03,298.62h-24.95c-.1-11.69-6.13-21.93-10.54-32.37l-37.5.06c-4.2,10.5-10.76,20.52-10.5,32.31h-25.43l4.71-6.56c17.98-32.09,33.59-65.52,50.37-98.26l1.29-1.58c15.63,31.05,28.69,63.43,44.78,94.26l7.76,12.14ZM636.83,253.09h24.95l-12.23-27.32-12.72,27.32Z"/>
    <g>
      <path class="st0" d="M870.23,192.7c2.59,5,5.32,9.35,8.69,13.85,9.03,12.06,19.43,24.03,28.98,35.77.28.34.5.73.49,1.18l37.13-46.05,2.2-4.27h20.63c-.77,2.1-2.61,3.66-3.74,5.61-2.86,4.89-4.1,11.03-4.43,16.66-1.08,18.11-.84,42.19.02,60.41.21,4.32.71,9.47,1.67,13.67.72,3.16,1.96,6.1,3.12,9.1h-25.43c.75-1.9,1.6-3.78,2.16-5.75,1.64-5.8,2.39-12.4,2.66-18.43.64-14.5,1.23-36.19-.02-50.36-.06-.71.38-1.38-.71-1.19l-33.82,42.43-1.66.74-35.29-43.17v55.84c.68,6.82,2.07,13.44,4.31,19.9h-24.95c3.07-6.93,4.43-14.69,4.82-22.27,1.2-23.29-.96-47.59,0-70.98-.25-1.89-5.44-6.58-6.99-8.36-1.03-1.19-2.56-2.87-3.11-4.32h23.27Z"/>
      <path class="st0" d="M838.81,192.7l-7.26,16.24c-.98.62-9.96-3.44-11.94-4.01-1.44-.42-5.79-1.68-6.95-1.68h-10.79v36.43h33.1l-8.96,14.81c-8.01-1.65-15.84-4.43-24.15-4.27v38.34c14.82.55,29.36-2.65,43.17-7.67l-7.19,17.73h-55.65c1.77-6.97,3.48-14.08,3.86-21.31.98-18.65.89-42.71,0-61.39-.37-7.85-1.85-15.67-3.86-23.22h56.61Z"/>
    </g>
    <g>
      <path class="st0" d="M453.07,192.7c-.86,4.44-2.38,8.7-2.82,13.24-.23,2.36.06,4.76-.07,7.12-.76,14.53-2.28,41.2.81,54.8,5.83,25.72,41.73,26.82,49.43,1.62.17-19.6,1.89-41.19.64-60.75-.35-5.5-1.95-10.77-3.38-16.04h22.07l-2.42,14.12c.86,23.61-1.07,47.94,0,71.46.31,6.83,1.44,13.7,2.9,20.35h-18.71l.47-10.07c-15.96,10.38-41.45,17.6-56.85,2.39-19.86-19.62-7.04-65.58-12.46-91.56-.48-2.32-1.47-4.45-2.18-6.69h22.55Z"/>
      <path class="st0" d="M585.49,196.53v16.3c-2.2-.87-3.84-2.72-5.92-3.92-12.8-7.34-34.84-3.59-29.85,14.48,4.72,17.08,39.42,17.94,41.06,43.82,1.87,29.4-31.51,37.28-54.24,29.5v-22.53c6.53,6.96,12.29,13.38,22.81,12.48,8.81-.75,15.45-9.35,13.33-18.14-3.41-14.14-35.02-19.05-39.36-39.28-3.98-18.59,9.52-36.29,28.39-37.52,8.69-.57,15.83,1.81,23.77,4.82Z"/>
    </g>
    <g>
      <g>
        <path class="st0" d="M351.84,298.62c1.51-6.96,2.59-14.17,2.9-21.31.91-20.81,1.14-47.39,0-68.11-.29-5.29-1.35-10.98-2.9-16.03,11.34.17,22.26-1.56,33.5.79,32.16,6.72,37.39,42.44,7.81,56.77-.69.97,2.42,5.49,3.1,6.62,8.96,14.78,20.7,27.76,31.38,41.26h-14.63c-16.75-13.6-29.31-31.34-42.22-48.42.02,16.13-1.9,32.75,2.64,48.42h-21.59ZM370.55,247.82c14.87-2.82,30.77-12.64,24.69-30.18-3.54-10.21-14.66-14.74-24.69-15.84v46.01Z"/>
        <path class="st0" d="M335.05,192.7l-7.26,16.24c-.98.62-9.96-3.44-11.94-4.01-1.44-.42-5.79-1.68-6.95-1.68h-10.79v36.43h33.1l-8.96,14.81c-8.01-1.65-15.84-4.43-24.15-4.27v38.34c14.82.55,29.36-2.65,43.17-7.67l-7.19,17.73h-55.65c1.77-6.97,3.48-14.08,3.86-21.31.98-18.65.89-42.71,0-61.39-.37-7.85-1.85-15.67-3.86-23.22h56.61Z"/>
      </g>
      <path class="st0" d="M260.69,192.7c-.68,2.79-1.47,5.58-1.86,8.45-3.9,28.65,1.75,60.29-2.04,89.03-2.67,20.24-15.71,35.09-37.6,30.01-.74-.17-.84.32-.71-.94,18.21-6.81,22.3-25.4,23.53-42.89v-70.44c-7.22-2.01-14.78.1-22.09.68l4.56-13.9h36.22Z"/>
    </g>
    <path class="st0" d="M737.1,193.18c-2.18,6.39-3.32,12.65-3.86,19.39l-.46,75.03c13.83-.57,27.36-3.98,40.3-8.63l-8.15,19.65h-51.82c4.29-9.96,3.49-19.96,3.82-30.46.59-18.95,1.62-40.64.04-59.44-.45-5.34-1.6-10.53-3.38-15.56h23.51Z"/>
  </g>
</svg>